<?xml version="1.0" encoding="UTF-8" standalone="no"?>
<!DOCTYPE svg PUBLIC "-//W3C//DTD SVG 1.1//EN" "http://www.w3.org/Graphics/SVG/1.1/DTD/svg11.dtd">
<svg xmlns="http://www.w3.org/2000/svg" xmlns:xlink="http://www.w3.org/1999/xlink" version="1.1" width="453.543pt" height="255.118pt" viewBox="0 0 453.543 255.118">
<g enable-background="new">
<path transform="matrix(1,0,0,-1,0,255.118)" d="M 0 0 L 453.543 0 L 453.543 255.118 L 0 255.118 Z " fill="#ebebeb"/>
<symbol id="font_0_5">
<path d="M .229 .67700007 L .20700002 .67700007 C .142 .61700007 .060000004 .61300006 0 .611 L 0 .54800006 C .039000006 .549 .089 .551 .139 .57100006 L .139 .063 L .0059999974 .063 L .0059999974 0 L .36200003 0 L .36200003 .063 L .229 .063 L .229 .67700007 Z "/>
</symbol>
<symbol id="font_0_3">
<path d="M .407 .95900008 C .412 .971 .412 .975 .412 .97700008 C .412 .99 .402 1 .389 1 C .373 1 .36900003 .98800006 .364 .976 L .004999999 .040999995 C 0 .028999985 0 .024999991 0 .022999987 C 0 .00999999 .010000002 0 .022999999 0 C .039 0 .043 .0119999949 .048000006 .023999989 L .407 .95900008 Z "/>
</symbol>
<symbol id="font_0_b">
<path d="M .20300001 .58900007 C .215 .58900007 .22700003 .59000006 .23900002 .59000006 L .365 .59000006 C .213 .441 .11600001 .23200003 .11600001 0 L .21000001 0 C .21000001 .292 .35200004 .50200006 .44200004 .596 L .44200004 .666 L 0 .666 L 0 .58900007 L .20300001 .58900007 Z "/>
</symbol>
<use xlink:href="#font_0_5" transform="matrix(5.9776,0,0,-5.9776,441.73194,242.00099)" fill="#adade0"/>
<use xlink:href="#font_0_3" transform="matrix(5.9776,0,0,-5.9776,444.7088,243.49539)" fill="#adade0"/>
<use xlink:href="#font_0_b" transform="matrix(5.9776,0,0,-5.9776,447.7932,242.06076)" fill="#adade0"/>
<symbol id="font_1_7">
<path d="M 0 .694 L 0 0 L .25700004 0 C .42400003 0 .558 .15100001 .558 .34100003 C .558 .536 .425 .694 .25700004 .694 L 0 .694 M .08400001 .056 L .08400001 .638 L .23400001 .638 C .36800004 .638 .47399999 .523 .47399999 .342 C .47399999 .15900001 .36300005 .056 .23400001 .056 L .08400001 .056 Z "/>
</symbol>
<symbol id="font_1_15">
<path d="M .086 .679 L 0 .679 L 0 .59300008 L .086 .59300008 L .086 .679 M .080000009 .44400005 L .0059999974 .44400005 L .0059999974 0 L .080000009 0 L .080000009 .44400005 Z "/>
</symbol>
<symbol id="font_1_1c">
<path d="M .30900003 .43800003 C .24500002 .46800003 .19100002 .469 .16800002 .469 C .14500001 .469 .005999999 .469 .005999999 .33900003 C .005999999 .29500003 .030000003 .26500003 .045 .25100003 C .081 .22000002 .106 .21500002 .165 .20300001 C .19800002 .19600001 .256 .18400002 .256 .13100001 C .256 .062000004 .17800002 .062000004 .16400002 .062000004 C .124000009 .062000004 .066 .073 .012 .112 L 0 .044000005 C .005000001 .041 .073 0 .165 0 C .294 0 .32500003 .078 .32500003 .13700001 C .32500003 .18800001 .294 .22000002 .29 .22500001 C .253 .263 .223 .269 .16200002 .28100003 C .12600002 .28800003 .075 .298 .075 .34800003 C .075 .41 .14500001 .41 .158 .41 C .21100001 .41 .253 .398 .297 .373 L .30900003 .43800003 Z "/>
</symbol>
<symbol id="font_1_10">
<path d="M .36600004 .118 C .32000003 .081 .26900003 .062000004 .21300002 .062000004 C .13000001 .062000004 .076000008 .136 .076000008 .23300001 C .076000008 .316 .11600001 .407 .21600002 .407 C .28300003 .407 .31100003 .391 .35400004 .36200003 L .36600004 .42700003 C .30800004 .46100004 .275 .469 .21600002 .469 C .07800001 .469 0 .347 0 .23300001 C 0 .105000007 .09200001 0 .21200001 0 C .261 0 .31700004 .012000001 .372 .052000006 C .372 .055000005 .36900003 .086 .36800004 .09 L .36600004 .118 Z "/>
</symbol>
<symbol id="font_1_1e">
<path d="M .347 .45400004 L .27100004 .45400004 L .27100004 .16800002 C .27100004 .092 .21800001 .055000005 .153 .055000005 C .083000008 .055000005 .076000008 .081 .076000008 .125 L .076000008 .45400004 L 0 .45400004 L 0 .12100001 C 0 .049000004 .022999995 0 .105000007 0 C .133 0 .212 .0050000005 .273 .060000004 L .273 .010000001 L .347 .010000001 L .347 .45400004 Z "/>
</symbol>
<symbol id="font_1_19">
<path d="M .42900003 .23000002 C .42900003 .365 .33 .469 .215 .469 C .097 .469 0 .363 0 .23000002 C 0 .099 .10000001 0 .21400002 0 C .33200003 0 .42900003 .101 .42900003 .23000002 M .215 .062000004 C .143 .062000004 .076000008 .122 .076000008 .24000001 C .076000008 .361 .15100001 .409 .21400002 .409 C .28300003 .409 .35300002 .357 .35300002 .24000001 C .35300002 .117000009 .282 .062000004 .215 .062000004 Z "/>
</symbol>
<symbol id="font_1_18">
<path d="M .347 .30100004 C .347 .36200003 .334 .45400004 .21300002 .45400004 C .157 .45400004 .109 .42900003 .070999998 .381 L .070999998 .44900004 L 0 .44900004 L 0 0 L .076000008 0 L .076000008 .24900002 C .076000008 .31100003 .09900001 .39400003 .175 .39400003 C .268 .39400003 .27100004 .32900004 .27100004 .294 L .27100004 0 L .347 0 L .347 .30100004 Z "/>
</symbol>
<symbol id="font_1_13">
<path d="M .14700002 .386 L .254 .386 L .254 .44400005 L .14500001 .44400005 L .14500001 .564 C .14500001 .632 .20200002 .64400008 .23500002 .64400008 C .27 .64400008 .30100004 .633 .31300003 .628 L .31300003 .694 C .30600003 .69600006 .27300004 .70400008 .23600003 .70400008 C .141 .70400008 .07300001 .63100007 .07300001 .53400006 L .07300001 .44400005 L 0 .44400005 L 0 .386 L .07300001 .386 L .07300001 0 L .14700002 0 L .14700002 .386 Z "/>
</symbol>
<symbol id="font_1_6">
<path d="M .34 .694 L .252 .694 L 0 0 L .074 0 L .14700002 .20300001 L .42900003 .20300001 L .503 0 L .592 0 L .34 .694 M .28800003 .62200006 L .40800003 .259 L .16900002 .259 L .28800003 .62200006 Z "/>
</symbol>
<symbol id="font_1_16">
<path d="M .07400001 .694 L 0 .694 L 0 0 L .07400001 0 L .07400001 .694 Z "/>
</symbol>
<symbol id="font_1_1d">
<path d="M .153 .396 L .291 .396 L .291 .45400004 L .153 .45400004 L .153 .58100005 L .08400001 .58100005 L .08400001 .45400004 L 0 .45400004 L 0 .396 L .082 .396 L .082 .127 C .082 .069000009 .095000009 0 .164 0 C .231 0 .277 .023000002 .308 .039 L .293 .097 C .25800003 .066 .221 .062000004 .20300001 .062000004 C .159 .062000004 .153 .109000008 .153 .14400001 L .153 .396 Z "/>
</symbol>
<symbol id="font_1_1b">
<path d="M .07400001 .21900001 C .07400001 .32000003 .15 .386 .24000001 .38700003 L .24000001 .45400004 C .14900002 .453 .09600001 .4 .069 .36100004 L .069 .44900004 L 0 .44900004 L 0 0 L .07400001 0 L .07400001 .21900001 Z "/>
</symbol>
<symbol id="font_1_17">
<path d="M .62 .30100004 C .62 .37 .602 .45400004 .485 .45400004 C .40000005 .45400004 .353 .395 .338 .37300004 C .32 .43600003 .265 .45400004 .21300002 .45400004 C .131 .45400004 .088 .40100003 .070999998 .38000003 L .070999998 .44900004 L 0 .44900004 L 0 0 L .076000008 0 L .076000008 .24900002 C .076000008 .31500004 .102 .39400003 .175 .39400003 C .26700003 .39400003 .272 .33100004 .272 .294 L .272 0 L .348 0 L .348 .24900002 C .348 .31500004 .374 .39400003 .44700004 .39400003 C .53900006 .39400003 .544 .33100004 .544 .294 L .544 0 L .62 0 L .62 .30100004 Z "/>
</symbol>
<symbol id="font_1_c">
<path d="M .411 .68700006 C .37000004 .70900008 .32000003 .73600009 .231 .73600009 C .097 .73600009 .009999998 .64000007 .009999998 .5400001 C .009999998 .469 .053 .423 .058000003 .418 C .10700001 .368 .141 .35900004 .20500002 .34300003 C .29000003 .32200004 .30400003 .31800003 .33600004 .285 C .35300002 .26700003 .36800004 .23500002 .36800004 .2 C .36800004 .13100001 .31100003 .067 .22500003 .067 C .15200001 .067 .074 .096 .015000001 .15 L 0 .069000009 C .091000009 .0090000019 .179 0 .22500003 0 C .35400004 0 .44500003 .09900001 .44500003 .21000001 C .44500003 .27400003 .41400004 .32200004 .39200003 .347 C .34600003 .39600004 .30900003 .40600003 .24200002 .423 C .17400001 .44000004 .149 .446 .127 .467 C .11400001 .481 .08700001 .50600007 .08700001 .55100008 C .08700001 .61200007 .142 .67100009 .23000002 .67100009 C .31500004 .67100009 .36 .6380001 .39600004 .60600009 L .411 .68700006 Z "/>
</symbol>
<symbol id="font_1_12">
<path d="M .374 .23500002 C .374 .278 .37000004 .33900003 .33800004 .39200003 C .29700003 .46100004 .22700003 .469 .19800002 .469 C .09 .469 0 .365 0 .23500002 C 0 .103 .09600001 0 .21200001 0 C .25800003 0 .31300003 .013 .36800004 .053000004 C .36800004 .057000005 .36500005 .088 .36500005 .09 C .36400003 .091 .36200003 .113000009 .36200003 .117000009 C .30300004 .067 .24400002 .060000004 .21400002 .060000004 C .137 .060000004 .071 .12900001 .069000009 .23500002 L .374 .23500002 M .075 .289 C .092 .356 .139 .409 .19800002 .409 C .22900003 .409 .29800005 .395 .31500004 .289 L .075 .289 Z "/>
</symbol>
<symbol id="font_1_1">
<path d="M .26000003 0 L .26000003 .058000015 L 0 .058000015 L 0 0 L .26000003 0 Z "/>
</symbol>
<symbol id="font_1_5">
<path d="M .19500001 .22100002 C .19500001 .328 .26000003 .39900003 .29800005 .43 C .31800003 .44700004 .35300002 .48000003 .35300002 .549 C .35300002 .62600007 .30600003 .70400008 .164 .70400008 C .085999999 .70400008 .030000005 .67300006 0 .651 L .022000004 .58900007 C .077999997 .63900008 .134 .64400008 .165 .64400008 C .219 .64400008 .27700005 .63100007 .27700005 .55 C .27700005 .505 .256 .48600004 .23900001 .47200004 C .18300002 .423 .13000001 .335 .13000001 .224 L .13000001 .17300001 L .19500001 .17300001 L .19500001 .22100002 M .12200001 0 L .203 0 L .203 .081 L .12200001 .081 L .12200001 0 Z "/>
</symbol>
<symbol id="font_1_8">
<path d="M .41 .33 L .41 .39000003 L .08600001 .39000003 L .08600001 .63000008 L .222 .63000008 C .234 .63000008 .24600002 .629 .25800003 .629 L .438 .629 L .438 .69200006 L 0 .69200006 L 0 0 L .451 0 L .451 .068 L .32000003 .068 C .30800004 .068 .296 .067 .284 .067 L .08600001 .067 L .08600001 .33 L .41 .33 Z "/>
</symbol>
<symbol id="font_1_9">
<path d="M .522 .312 L .31500004 .312 L .31500004 .25100003 L .44500006 .25100003 L .44500006 .083000008 C .404 .07300001 .36300005 .063 .314 .063 C .17000002 .063 .086 .21800001 .086 .35700003 C .086 .49100004 .167 .652 .319 .652 C .395 .652 .444 .629 .499 .58400008 L .51400008 .666 C .44700004 .70000007 .39200003 .71500006 .316 .71500006 C .125 .71500006 0 .535 0 .35700003 C 0 .17700002 .125 0 .31800003 0 C .388 0 .45900006 .016 .522 .048 L .522 .312 Z "/>
</symbol>
<symbol id="font_1_1a">
<path d="M .07600001 .23900001 C .11000001 .208 .15200001 .184 .206 .184 C .30200003 .184 .388 .28100003 .388 .417 C .388 .538 .324 .648 .231 .648 C .19 .648 .12600002 .635 .07400001 .591 L .07400001 .638 L 0 .638 L 0 0 L .07600001 0 L .07600001 .23900001 M .07600001 .53000006 C .099 .564 .137 .586 .178 .586 C .252 .586 .312 .51100006 .312 .416 C .312 .316 .243 .244 .169 .244 C .141 .244 .122 .254 .10400001 .268 C .079 .29000003 .07600001 .30800004 .07600001 .324 L .07600001 .53000006 Z "/>
</symbol>
<symbol id="font_1_f">
<path d="M .34700004 .303 C .34700004 .39900003 .27800004 .469 .18500002 .469 C .12500002 .469 .08 .455 .031 .42700003 L .036999998 .361 C .081 .393 .127 .411 .18500002 .411 C .231 .411 .27100004 .374 .27100004 .301 L .27100004 .26 C .22600001 .25800003 .16600001 .255 .106000009 .23500002 C .039 .21200001 0 .17500001 0 .125 C 0 .081 .025999997 0 .111 0 C .16600001 0 .236 .016 .273 .047000003 L .273 .010000001 L .34700004 .010000001 L .34700004 .303 M .27100004 .14400001 C .27100004 .124000009 .27100004 .1 .238 .08 C .21100003 .063 .17700002 .060000004 .16200002 .060000004 C .10800001 .060000004 .070999998 .089 .070999998 .126 C .070999998 .19400002 .21000001 .20900002 .27100004 .20900002 L .27100004 .14400001 Z "/>
</symbol>
<symbol id="font_1_21">
<path d="M .41900004 .64800009 L .344 .64800009 C .298 .53000006 .22100002 .33400003 .21700001 .26200003 L .216 .26200003 C .21100001 .321 .158 .453 .15 .47300006 L .079 .64800009 L 0 .64800009 L .186 .20400001 L .15100001 .113000009 C .12900001 .06300001 .11400001 .058 .09600001 .058 C .082 .058 .050000006 .061000006 .019 .073 L .025 .008000001 C .031000002 .0069999995 .064 0 .09600001 0 C .120000008 0 .16700001 0 .21000001 .11000001 L .41900004 .64800009 Z "/>
</symbol>
<symbol id="font_1_14">
<path d="M .347 .30100004 C .347 .36200003 .334 .45400004 .21300002 .45400004 C .14400001 .45400004 .098000008 .41500003 .074 .38500003 L .074 .694 L 0 .694 L 0 0 L .076000008 0 L .076000008 .24900002 C .076000008 .31100003 .09900001 .39400003 .175 .39400003 C .268 .39400003 .27100004 .32900004 .27100004 .294 L .27100004 0 L .347 0 L .347 .30100004 Z "/>
</symbol>
<symbol id="font_1_b">
<path d="M .244 .289 C .38200004 .289 .477 .388 .477 .492 C .477 .59800007 .38 .694 .244 .694 L 0 .694 L 0 0 L .085999999 0 L .085999999 .289 L .244 .289 M .223 .638 C .34000004 .638 .398 .568 .398 .49300004 C .398 .41400004 .337 .347 .223 .347 L .08400001 .347 L .08400001 .638 L .223 .638 Z "/>
</symbol>
<use xlink:href="#font_1_7" transform="matrix(14.3462,0,0,-14.3462,52.01452,54.373994)" fill="#3333b3"/>
<use xlink:href="#font_1_15" transform="matrix(14.3462,0,0,-14.3462,61.841665,54.373994)" fill="#3333b3"/>
<use xlink:href="#font_1_1c" transform="matrix(14.3462,0,0,-14.3462,64.49571,54.517457)" fill="#3333b3"/>
<use xlink:href="#font_1_10" transform="matrix(14.3462,0,0,-14.3462,69.9903,54.517457)" fill="#3333b3"/>
<use xlink:href="#font_1_1e" transform="matrix(14.3462,0,0,-14.3462,76.83345,54.517457)" fill="#3333b3"/>
<use xlink:href="#font_1_1c" transform="matrix(14.3462,0,0,-14.3462,83.317928,54.517457)" fill="#3333b3"/>
<use xlink:href="#font_1_1c" transform="matrix(14.3462,0,0,-14.3462,88.697757,54.517457)" fill="#3333b3"/>
<use xlink:href="#font_1_15" transform="matrix(14.3462,0,0,-14.3462,94.72316,54.373994)" fill="#3333b3"/>
<use xlink:href="#font_1_19" transform="matrix(14.3462,0,0,-14.3462,97.42025,54.517457)" fill="#3333b3"/>
<use xlink:href="#font_1_18" transform="matrix(14.3462,0,0,-14.3462,105.12416,54.373994)" fill="#3333b3"/>
<use xlink:href="#font_1_19" transform="matrix(14.3462,0,0,-14.3462,116.34289,54.517457)" fill="#3333b3"/>
<use xlink:href="#font_1_13" transform="matrix(14.3462,0,0,-14.3462,123.3008,54.373994)" fill="#3333b3"/>
<use xlink:href="#font_1_6" transform="matrix(14.3462,0,0,-14.3462,132.29586,54.373994)" fill="#3333b3"/>
<use xlink:href="#font_1_16" transform="matrix(14.3462,0,0,-14.3462,142.30951,54.373994)" fill="#3333b3"/>
<use xlink:href="#font_1_1d" transform="matrix(14.3462,0,0,-14.3462,144.74835,54.517457)" fill="#3333b3"/>
<use xlink:href="#font_1_1b" transform="matrix(14.3462,0,0,-14.3462,150.68769,54.373994)" fill="#3333b3"/>
<use xlink:href="#font_1_1e" transform="matrix(14.3462,0,0,-14.3462,155.45063,54.517457)" fill="#3333b3"/>
<use xlink:href="#font_1_15" transform="matrix(14.3462,0,0,-14.3462,162.58069,54.373994)" fill="#3333b3"/>
<use xlink:href="#font_1_1c" transform="matrix(14.3462,0,0,-14.3462,165.23473,54.517457)" fill="#3333b3"/>
<use xlink:href="#font_1_17" transform="matrix(14.3462,0,0,-14.3462,171.33187,54.373994)" fill="#3333b3"/>
<use xlink:href="#font_1_19" transform="matrix(14.3462,0,0,-14.3462,186.43842,54.517457)" fill="#3333b3"/>
<use xlink:href="#font_1_1b" transform="matrix(14.3462,0,0,-14.3462,193.76932,54.373994)" fill="#3333b3"/>
<use xlink:href="#font_1_c" transform="matrix(14.3462,0,0,-14.3462,202.73569,54.675264)" fill="#3333b3"/>
<use xlink:href="#font_1_12" transform="matrix(14.3462,0,0,-14.3462,210.38222,54.517457)" fill="#3333b3"/>
<use xlink:href="#font_1_16" transform="matrix(14.3462,0,0,-14.3462,217.2684,54.373994)" fill="#3333b3"/>
<use xlink:href="#font_1_13" transform="matrix(14.3462,0,0,-14.3462,219.82202,54.373994)" fill="#3333b3"/>
<use xlink:href="#font_1_1" transform="matrix(14.3462,0,0,-14.3462,223.89635,51.605176)" fill="#3333b3"/>
<use xlink:href="#font_1_15" transform="matrix(14.3462,0,0,-14.3462,229.44834,54.373994)" fill="#3333b3"/>
<use xlink:href="#font_1_18" transform="matrix(14.3462,0,0,-14.3462,232.81969,54.373994)" fill="#3333b3"/>
<use xlink:href="#font_1_1d" transform="matrix(14.3462,0,0,-14.3462,239.17505,54.517457)" fill="#3333b3"/>
<use xlink:href="#font_1_12" transform="matrix(14.3462,0,0,-14.3462,244.4688,54.517457)" fill="#3333b3"/>
<use xlink:href="#font_1_1b" transform="matrix(14.3462,0,0,-14.3462,251.35498,54.373994)" fill="#3333b3"/>
<use xlink:href="#font_1_12" transform="matrix(14.3462,0,0,-14.3462,255.48668,54.517457)" fill="#3333b3"/>
<use xlink:href="#font_1_1c" transform="matrix(14.3462,0,0,-14.3462,261.6412,54.517457)" fill="#3333b3"/>
<use xlink:href="#font_1_1d" transform="matrix(14.3462,0,0,-14.3462,266.8919,54.517457)" fill="#3333b3"/>
<use xlink:href="#font_1_5" transform="matrix(14.3462,0,0,-14.3462,272.4869,54.373994)" fill="#3333b3"/>
<use xlink:href="#font_1_8" transform="matrix(14.3462,0,0,-14.3462,285.87193,54.373994)" fill="#3333b3"/>
<use xlink:href="#font_1_c" transform="matrix(14.3462,0,0,-14.3462,293.5758,54.675264)" fill="#3333b3"/>
<use xlink:href="#font_1_9" transform="matrix(14.3462,0,0,-14.3462,301.6814,54.50311)" fill="#3333b3"/>
<use xlink:href="#font_1_1a" transform="matrix(14.3462,0,0,-14.3462,315.9272,57.157155)" fill="#3333b3"/>
<use xlink:href="#font_1_f" transform="matrix(14.3462,0,0,-14.3462,322.64118,54.517457)" fill="#3333b3"/>
<use xlink:href="#font_1_1b" transform="matrix(14.3462,0,0,-14.3462,329.46998,54.373994)" fill="#3333b3"/>
<use xlink:href="#font_1_1d" transform="matrix(14.3462,0,0,-14.3462,333.38648,54.517457)" fill="#3333b3"/>
<use xlink:href="#font_1_15" transform="matrix(14.3462,0,0,-14.3462,339.23973,54.373994)" fill="#3333b3"/>
<use xlink:href="#font_1_10" transform="matrix(14.3462,0,0,-14.3462,342.0085,54.517457)" fill="#3333b3"/>
<use xlink:href="#font_1_15" transform="matrix(14.3462,0,0,-14.3462,348.77995,54.373994)" fill="#3333b3"/>
<use xlink:href="#font_1_1a" transform="matrix(14.3462,0,0,-14.3462,352.16566,57.157155)" fill="#3333b3"/>
<use xlink:href="#font_1_f" transform="matrix(14.3462,0,0,-14.3462,358.87965,54.517457)" fill="#3333b3"/>
<use xlink:href="#font_1_1d" transform="matrix(14.3462,0,0,-14.3462,365.23503,54.517457)" fill="#3333b3"/>
<use xlink:href="#font_1_15" transform="matrix(14.3462,0,0,-14.3462,371.08827,54.373994)" fill="#3333b3"/>
<use xlink:href="#font_1_19" transform="matrix(14.3462,0,0,-14.3462,373.78535,54.517457)" fill="#3333b3"/>
<use xlink:href="#font_1_18" transform="matrix(14.3462,0,0,-14.3462,381.48924,54.373994)" fill="#3333b3"/>
<use xlink:href="#font_1_15" transform="matrix(14.3462,0,0,-14.3462,393.29615,54.373994)" fill="#3333b3"/>
<use xlink:href="#font_1_18" transform="matrix(14.3462,0,0,-14.3462,396.66749,54.373994)" fill="#3333b3"/>
<use xlink:href="#font_1_8" transform="matrix(14.3462,0,0,-14.3462,163.85216,72.30699)" fill="#3333b3"/>
<use xlink:href="#font_1_17" transform="matrix(14.3462,0,0,-14.3462,172.0295,72.30699)" fill="#3333b3"/>
<use xlink:href="#font_1_1a" transform="matrix(14.3462,0,0,-14.3462,183.1478,75.09016)" fill="#3333b3"/>
<use xlink:href="#font_1_16" transform="matrix(14.3462,0,0,-14.3462,190.3496,72.30699)" fill="#3333b3"/>
<use xlink:href="#font_1_19" transform="matrix(14.3462,0,0,-14.3462,192.9606,72.450458)" fill="#3333b3"/>
<use xlink:href="#font_1_21" transform="matrix(14.3462,0,0,-14.3462,199.37335,75.23362)" fill="#3333b3"/>
<use xlink:href="#font_1_12" transform="matrix(14.3462,0,0,-14.3462,205.68567,72.450458)" fill="#3333b3"/>
<use xlink:href="#font_1_12" transform="matrix(14.3462,0,0,-14.3462,211.92627,72.450458)" fill="#3333b3"/>
<use xlink:href="#font_1_c" transform="matrix(14.3462,0,0,-14.3462,223.00154,72.60826)" fill="#3333b3"/>
<use xlink:href="#font_1_14" transform="matrix(14.3462,0,0,-14.3462,231.27931,72.30699)" fill="#3333b3"/>
<use xlink:href="#font_1_f" transform="matrix(14.3462,0,0,-14.3462,238.00768,72.450458)" fill="#3333b3"/>
<use xlink:href="#font_1_1b" transform="matrix(14.3462,0,0,-14.3462,244.83647,72.30699)" fill="#3333b3"/>
<use xlink:href="#font_1_12" transform="matrix(14.3462,0,0,-14.3462,248.96817,72.450458)" fill="#3333b3"/>
<use xlink:href="#font_1_b" transform="matrix(14.3462,0,0,-14.3462,260.7177,72.30699)" fill="#3333b3"/>
<use xlink:href="#font_1_16" transform="matrix(14.3462,0,0,-14.3462,269.4689,72.30699)" fill="#3333b3"/>
<use xlink:href="#font_1_f" transform="matrix(14.3462,0,0,-14.3462,272.28074,72.450458)" fill="#3333b3"/>
<use xlink:href="#font_1_18" transform="matrix(14.3462,0,0,-14.3462,279.4825,72.30699)" fill="#3333b3"/>
<use xlink:href="#font_1_1c" transform="matrix(14.3462,0,0,-14.3462,285.967,72.450458)" fill="#3333b3"/>
<symbol id="font_2_23">
<path d="M .43000005 .35500003 C .39500005 .264 .34800003 .14 .337 .093 L .33600004 .093 C .33100004 .11400001 .31900005 .15100001 .30400003 .193 L .14700002 .60700008 L .11300001 .694 L 0 .694 L 0 0 L .078 0 L .078 .62 L .079 .62 C .085 .588 .125 .47900004 .15100003 .411 L .29900003 .022000002 L .37200005 .022000002 L .505 .37 C .537 .45200003 .546 .47700004 .55300006 .497 C .563 .526 .59000006 .59800007 .595 .62100008 L .596 .62 L .596 0 L .674 0 L .674 .694 L .56 .694 L .43000005 .35500003 Z "/>
</symbol>
<symbol id="font_2_30">
<path d="M .35500003 .3 C .35500003 .40200005 .282 .47200004 .19000001 .47200004 C .12500002 .47200004 .08 .45600004 .033000005 .42900003 L .039 .36300005 C .091000009 .40000005 .141 .41300003 .19000001 .41300003 C .23700002 .41300003 .277 .37300004 .277 .29900003 L .277 .256 C .127 .254 0 .21200001 0 .124000009 C 0 .081 .026999999 0 .11400001 0 C .128 0 .222 .0020000004 .28 .047000003 L .28 .011000001 L .35500003 .011000001 L .35500003 .3 M .277 .143 C .277 .124000009 .277 .09900001 .243 .080000009 C .21400002 .062000004 .17600002 .061 .165 .061 C .11700001 .061 .072 .08400001 .072 .126 C .072 .19600001 .23400003 .20300001 .277 .20500002 L .277 .143 Z "/>
</symbol>
<symbol id="font_2_46">
<path d="M .26000003 .22900002 L .44300003 .44400005 L .36100004 .44400005 L .22700002 .279 L .089 .44400005 L .006 .44400005 L .194 .22900002 L 0 0 L .082 0 L .22700002 .18800001 L .377 0 L .46 0 L .26000003 .22900002 Z "/>
</symbol>
<symbol id="font_2_38">
<path d="M .089 .68 L 0 .68 L 0 .591 L .089 .591 L .089 .68 M .082 .44400005 L .0069999995 .44400005 L .0069999995 0 L .082 0 L .082 .44400005 Z "/>
</symbol>
<symbol id="font_2_3b">
<path d="M .6320001 .298 C .6320001 .365 .61600008 .455 .49500004 .455 C .43500004 .455 .38300003 .42700003 .34600003 .37300004 C .32000003 .44900004 .25000004 .455 .21800003 .455 C .14600002 .455 .09900001 .41400004 .07200001 .37800003 L .07200001 .45000003 L 0 .45000003 L 0 0 L .07800001 0 L .07800001 .245 C .07800001 .31300003 .105000007 .39400003 .17900002 .39400003 C .272 .39400003 .277 .32900004 .277 .291 L .277 0 L .35500003 0 L .35500003 .245 C .35500003 .31300003 .38200004 .39400003 .456 .39400003 C .549 .39400003 .554 .32900004 .554 .291 L .554 0 L .6320001 0 L .6320001 .298 Z "/>
</symbol>
<symbol id="font_2_34">
<path d="M .37900005 .23000002 C .37900005 .26400004 .37800003 .33900003 .33900003 .39900003 C .298 .46100004 .23700002 .47200004 .20100002 .47200004 C .09 .47200004 0 .36600004 0 .23700002 C 0 .105000007 .096000019 0 .21600002 0 C .279 0 .33600004 .024 .37500004 .052 L .36900003 .117000009 C .30600003 .065000008 .24000001 .061 .21700001 .061 C .13700001 .061 .073 .13200002 .07000001 .23000002 L .37900005 .23000002 M .075 .28500004 C .091000009 .36100004 .14400001 .411 .20100002 .411 C .25300003 .411 .30900003 .37700004 .32200004 .28500004 L .075 .28500004 Z "/>
</symbol>
<symbol id="font_2_1a">
<path d="M 0 .694 L 0 0 L .26400004 0 C .408 0 .513 .09 .513 .18800001 C .513 .275 .426 .34600003 .32000003 .363 C .411 .386 .486 .44400005 .486 .52000007 C .486 .61200007 .379 .694 .23700002 .694 L 0 .694 M .083000008 .39100004 L .083000008 .638 L .20900002 .638 C .32000003 .638 .408 .58500006 .408 .51900008 C .408 .45900003 .337 .39100004 .199 .39100004 L .083000008 .39100004 M .083000008 .056 L .083000008 .33 L .22800002 .33 C .33400003 .33 .43200005 .26900003 .43200005 .18900001 C .43200005 .11400001 .344 .056 .236 .056 L .083000008 .056 Z "/>
</symbol>
<symbol id="font_2_3d">
<path d="M .439 .23100002 C .439 .365 .33900003 .47200004 .22 .47200004 C .097 .47200004 0 .36200003 0 .23100002 C 0 .09900001 .102 0 .21900001 0 C .33900003 0 .439 .101 .439 .23100002 M .21900001 .064 C .15 .064 .078 .120000008 .078 .24100001 C .078 .36200003 .15400002 .411 .21900001 .411 C .289 .411 .36100004 .35900004 .36100004 .24100001 C .36100004 .123 .293 .064 .21900001 .064 Z "/>
</symbol>
<symbol id="font_2_3c">
<path d="M .35400004 .298 C .35400004 .36400003 .33900003 .455 .21700001 .455 C .127 .455 .07800001 .38700003 .07200001 .379 L .07200001 .45000003 L 0 .45000003 L 0 0 L .07800001 0 L .07800001 .245 C .07800001 .31100003 .103000018 .39400003 .17900002 .39400003 C .275 .39400003 .27600003 .323 .27600003 .291 L .27600003 0 L .35400004 0 L .35400004 .298 Z "/>
</symbol>
<symbol id="font_2_3a">
<path d="M .075 .694 L 0 .694 L 0 0 L .075 0 L .075 .694 Z "/>
</symbol>
<symbol id="font_2_40">
<path d="M .075 .21400002 C .075 .314 .14700002 .386 .24500002 .388 L .24500002 .455 C .156 .45400004 .10100001 .40500004 .07000001 .35900004 L .07000001 .45000003 L 0 .45000003 L 0 0 L .075 0 L .075 .21400002 Z "/>
</symbol>
<symbol id="font_2_4">
<path d="M .15 0 L .211 0 L .07800001 .167 L 0 .167 L .15 0 Z "/>
</symbol>
<symbol id="font_2_1e">
<path d="M .391 .31500004 L .391 .37600003 L .08900001 .37600003 L .08900001 .62700006 L .22 .62700006 C .232 .62700006 .24400002 .62600007 .256 .62600007 L .432 .62600007 L .432 .69100007 L 0 .69100007 L 0 0 L .08900001 0 L .08900001 .31500004 L .391 .31500004 Z "/>
</symbol>
<symbol id="font_2_5">
<path d="M .13499999 .168 L .074 .168 L 0 0 L .069000009 0 L .13499999 .168 Z "/>
</symbol>
<symbol id="font_2_32">
<path d="M .374 .42900003 C .315 .46300004 .281 .47200004 .22000002 .47200004 C .081 .47200004 0 .351 0 .23300003 C 0 .109000008 .091000009 0 .216 0 C .27 0 .32500003 .014 .379 .051000004 L .373 .11800001 C .322 .078 .268 .064 .21700002 .064 C .134 .064 .07800001 .136 .07800001 .23400001 C .07800001 .31200005 .11500001 .40800003 .221 .40800003 C .273 .40800003 .307 .40000005 .36200003 .36400003 L .374 .42900003 Z "/>
</symbol>
<symbol id="font_2_41">
<path d="M .31500004 .44000004 C .263 .46400003 .222 .47200004 .17100002 .47200004 C .14600002 .47200004 .004999999 .47200004 .004999999 .34100003 C .004999999 .29200004 .034 .26000003 .059000005 .24100001 C .09 .21900001 .112 .21500002 .16700001 .20400001 C .20300001 .19700001 .261 .18500002 .261 .13200002 C .261 .063 .18200001 .063 .16700001 .063 C .08600001 .063 .030000002 .1 .012000002 .112 L 0 .044 C .032 .028 .087 0 .16800002 0 C .18600002 0 .24100003 0 .284 .032 C .31500004 .056 .33200003 .096 .33200003 .13900002 C .33200003 .19400002 .29500003 .22800002 .293 .23100002 C .254 .26600004 .22700003 .272 .17700002 .28100003 C .12200001 .29200004 .076000008 .30200003 .076000008 .351 C .076000008 .41300003 .14800002 .41300003 .16100002 .41300003 C .19300002 .41300003 .24600002 .40900005 .30300004 .37500004 L .31500004 .44000004 Z "/>
</symbol>
<symbol id="font_2_1c">
<path d="M 0 .694 L 0 0 L .263 0 C .43300004 0 .569 .15200001 .569 .34100003 C .569 .535 .43400003 .694 .26200003 .694 L 0 .694 M .08600001 .056 L .08600001 .638 L .23900001 .638 C .379 .638 .48300005 .517 .48300005 .34100003 C .48300005 .171 .379 .056 .23900001 .056 L .08600001 .056 Z "/>
</symbol>
<use xlink:href="#font_2_23" transform="matrix(10.9091,0,0,-10.9091,91.515918,110.51799)"/>
<use xlink:href="#font_2_30" transform="matrix(10.9091,0,0,-10.9091,100.45047,110.63799)"/>
<use xlink:href="#font_2_46" transform="matrix(10.9091,0,0,-10.9091,105.21774,110.51799)"/>
<use xlink:href="#font_2_38" transform="matrix(10.9091,0,0,-10.9091,111.054119,110.51799)"/>
<use xlink:href="#font_2_3b" transform="matrix(10.9091,0,0,-10.9091,113.737758,110.51799)"/>
<use xlink:href="#font_2_34" transform="matrix(10.9091,0,0,-10.9091,121.897769,110.63799)"/>
<use xlink:href="#font_2_1a" transform="matrix(10.9091,0,0,-10.9091,131.0505,110.51799)"/>
<use xlink:href="#font_2_3d" transform="matrix(10.9091,0,0,-10.9091,137.59597,110.63799)"/>
<use xlink:href="#font_2_3c" transform="matrix(10.9091,0,0,-10.9091,143.60688,110.51799)"/>
<use xlink:href="#font_2_34" transform="matrix(10.9091,0,0,-10.9091,148.74506,110.63799)"/>
<use xlink:href="#font_2_3a" transform="matrix(10.9091,0,0,-10.9091,154.09052,110.51799)"/>
<use xlink:href="#font_2_3a" transform="matrix(10.9091,0,0,-10.9091,156.69779,110.51799)"/>
<use xlink:href="#font_2_38" transform="matrix(10.9091,0,0,-10.9091,159.22869,110.51799)"/>
<use xlink:href="#font_2_23" transform="matrix(10.9091,0,0,-10.9091,197.73781,110.51799)"/>
<use xlink:href="#font_2_30" transform="matrix(10.9091,0,0,-10.9091,206.67235,110.63799)"/>
<use xlink:href="#font_2_40" transform="matrix(10.9091,0,0,-10.9091,212.03964,110.51799)"/>
<use xlink:href="#font_2_38" transform="matrix(10.9091,0,0,-10.9091,215.68328,110.51799)"/>
<use xlink:href="#font_2_34" transform="matrix(10.9091,0,0,-10.9091,217.8651,110.63799)"/>
<use xlink:href="#font_2_1a" transform="matrix(10.9091,0,0,-10.9091,227.01784,110.51799)"/>
<use xlink:href="#font_2_40" transform="matrix(10.9091,0,0,-10.9091,234.13057,110.51799)"/>
<use xlink:href="#font_2_38" transform="matrix(10.9091,0,0,-10.9091,237.7742,110.51799)"/>
<use xlink:href="#font_2_4" transform="matrix(10.9091,0,0,-10.9091,240.17421,104.7689)"/>
<use xlink:href="#font_2_34" transform="matrix(10.9091,0,0,-10.9091,239.95603,110.63799)"/>
<use xlink:href="#font_2_40" transform="matrix(10.9091,0,0,-10.9091,245.3124,110.51799)"/>
<use xlink:href="#font_2_34" transform="matrix(10.9091,0,0,-10.9091,248.53058,110.63799)"/>
<use xlink:href="#font_2_1e" transform="matrix(10.9091,0,0,-10.9091,289.63609,110.51799)"/>
<use xlink:href="#font_2_40" transform="matrix(10.9091,0,0,-10.9091,295.40699,110.51799)"/>
<use xlink:href="#font_2_30" transform="matrix(10.9091,0,0,-10.9091,298.7234,110.63799)"/>
<use xlink:href="#font_2_3c" transform="matrix(10.9091,0,0,-10.9091,304.3743,110.51799)"/>
<use xlink:href="#font_2_5" transform="matrix(10.9091,0,0,-10.9091,310.7125,112.61253)"/>
<use xlink:href="#font_2_32" transform="matrix(10.9091,0,0,-10.9091,309.5234,110.63799)"/>
<use xlink:href="#font_2_3d" transform="matrix(10.9091,0,0,-10.9091,314.30158,110.63799)"/>
<use xlink:href="#font_2_38" transform="matrix(10.9091,0,0,-10.9091,320.23616,110.51799)"/>
<use xlink:href="#font_2_41" transform="matrix(10.9091,0,0,-10.9091,322.34159,110.63799)"/>
<use xlink:href="#font_2_1c" transform="matrix(10.9091,0,0,-10.9091,330.89433,110.51799)"/>
<use xlink:href="#font_2_34" transform="matrix(10.9091,0,0,-10.9091,338.10523,110.63799)"/>
<use xlink:href="#font_2_40" transform="matrix(10.9091,0,0,-10.9091,343.46159,110.51799)"/>
<use xlink:href="#font_2_40" transform="matrix(10.9091,0,0,-10.9091,347.1925,110.51799)"/>
<use xlink:href="#font_2_38" transform="matrix(10.9091,0,0,-10.9091,350.83619,110.51799)"/>
<use xlink:href="#font_2_34" transform="matrix(10.9091,0,0,-10.9091,353.01799,110.63799)"/>
<use xlink:href="#font_2_3c" transform="matrix(10.9091,0,0,-10.9091,358.36344,110.51799)"/>
<symbol id="font_0_f">
<path d="M 0 .694 L 0 0 L .28400005 0 C .46400006 0 .609 .15200001 .609 .34100003 C .609 .537 .46300007 .694 .28400005 .694 L 0 .694 M .098000008 .059000005 L .098000008 .63500007 L .25700004 .63500007 C .394 .63500007 .51100006 .526 .51100006 .342 C .51100006 .156 .389 .059000005 .25700004 .059000005 L .098000008 .059000005 Z "/>
</symbol>
<symbol id="font_0_18">
<path d="M .10100001 .68600007 L 0 .68600007 L 0 .58500006 L .10100001 .58500006 L .10100001 .68600007 M .09300001 .44400005 L .009000003 .44400005 L .009000003 0 L .09300001 0 L .09300001 .44400005 Z "/>
</symbol>
<symbol id="font_0_1e">
<path d="M .335 .43800003 C .26700003 .46600003 .21700001 .469 .18100001 .469 C .156 .469 .004999999 .469 .004999999 .336 C .004999999 .289 .031000004 .263 .044 .25100003 C .079 .21600002 .12100001 .20800002 .17400001 .19800002 C .22100002 .18900001 .275 .17900002 .275 .13100001 C .275 .068 .19200002 .068 .178 .068 C .11400001 .068 .054000006 .091 .014000002 .119 L 0 .044000005 C .034 .027000003 .095 0 .178 0 C .22300002 0 .26700003 .0070000009 .30400003 .034 C .34100003 .062000004 .35300002 .106 .35300002 .14000002 C .35300002 .158 .351 .19700001 .30900003 .23500002 C .272 .268 .236 .275 .18800001 .284 C .12900001 .29500003 .083000008 .304 .083000008 .34800003 C .083000008 .405 .156 .405 .171 .405 C .22800002 .405 .272 .393 .32200004 .367 L .335 .43800003 Z "/>
</symbol>
<symbol id="font_0_13">
<path d="M .39900003 .119 C .349 .087000008 .29500003 .069000009 .23300003 .069000009 C .141 .069000009 .087 .143 .087 .23300001 C .087 .31 .127 .4 .23600002 .4 C .304 .4 .336 .386 .387 .354 L .4 .426 C .34 .456 .314 .469 .23600002 .469 C .08600001 .469 0 .34800003 0 .23200003 C 0 .11 .096 0 .23200001 0 C .30200003 0 .36200003 .021000002 .405 .046000005 L .39900003 .119 Z "/>
</symbol>
<symbol id="font_0_20">
<path d="M .38200004 .45400004 L .29500003 .45400004 L .29500003 .16400002 C .29500003 .084 .227 .059000005 .169 .059000005 C .095 .059000005 .087 .079 .087 .125 L .087 .45400004 L 0 .45400004 L 0 .119 C 0 .030000002 .039000006 0 .109 0 C .15 0 .238 .008 .298 .056000007 L .298 .010000001 L .38200004 .010000001 L .38200004 .45400004 Z "/>
</symbol>
<symbol id="font_0_1c">
<path d="M .47 .22900002 C .47 .361 .365 .469 .23500002 .469 C .105000007 .469 0 .36 0 .22900002 C 0 .102000009 .106000009 0 .23500002 0 C .365 0 .47 .102000009 .47 .22900002 M .23500002 .069000009 C .156 .069000009 .087000008 .127 .087000008 .24000001 C .087000008 .35300002 .16100002 .403 .23500002 .403 C .31 .403 .38300003 .351 .38300003 .24000001 C .38300003 .126 .312 .069000009 .23500002 .069000009 Z "/>
</symbol>
<symbol id="font_0_1b">
<path d="M .38200004 .296 C .38200004 .374 .35900004 .45400004 .236 .45400004 C .17900002 .45400004 .12400001 .43100003 .08 .37800003 L .08 .45100004 L 0 .45100004 L 0 0 L .087 0 L .087 .24300002 C .087 .30900003 .11500001 .388 .192 .388 C .29500003 .388 .29500003 .31800003 .29500003 .289 L .29500003 0 L .38200004 0 L .38200004 .296 Z "/>
</symbol>
<symbol id="font_0_12">
<path d="M .084000017 .704 L 0 .704 L 0 .010000001 L .087000008 .010000001 L .087000008 .057000005 C .109000008 .038000004 .157 0 .23000002 0 C .33900003 0 .42700003 .102000009 .42700003 .23300001 C .42700003 .354 .358 .46400003 .25800003 .46400003 C .195 .46400003 .134 .444 .084000017 .407 L .084000017 .704 M .087000008 .32500003 C .087000008 .34100003 .087000008 .35300002 .122000019 .37600003 C .13700003 .38500003 .164 .398 .19800002 .398 C .26500003 .398 .34 .35300002 .34 .23300001 C .34 .111 .257 .066 .187 .066 C .15 .066 .115 .083000008 .087000008 .128 L .087000008 .32500003 Z "/>
</symbol>
<symbol id="font_0_21">
<path d="M .45900006 .64800009 L .37800003 .64800009 C .297 .45700003 .24100001 .328 .237 .26700003 C .235 .29500003 .21700001 .34500004 .19900002 .39200003 C .18300002 .43200005 .16700001 .472 .149 .51100006 L .086 .64800009 L 0 .64800009 L .20700002 .20400001 C .19500001 .17500001 .17500001 .12900001 .16900002 .116000007 C .148 .074 .134 .060000004 .10700001 .060000004 C .10300001 .060000004 .066 .060000004 .023000002 .07800001 L .029000003 .008000001 C .038000004 .0059999974 .075 0 .106000009 0 C .14600002 0 .18200001 .015000001 .224 .11100001 L .45900006 .64800009 Z "/>
</symbol>
<symbol id="font_0_d">
<path d="M .372 .694 L .275 .694 L 0 0 L .082 0 L .16000001 .19800002 L .46400003 .19800002 L .54200008 0 L .6470001 0 L .372 .694 M .31300003 .61800006 L .439 .257 L .185 .257 L .31300003 .61800006 Z "/>
</symbol>
<symbol id="font_0_14">
<path d="M .42700003 .704 L .343 .704 L .343 .411 C .279 .458 .214 .46400003 .18500002 .46400003 C .08 .46400003 0 .359 0 .23200003 C 0 .105000007 .078999999 0 .18200001 0 C .244 0 .30200003 .028 .34 .062000004 L .34 .010000001 L .42700003 .010000001 L .42700003 .704 M .34 .134 C .315 .093 .277 .066 .22900002 .066 C .15900001 .066 .087 .115 .087 .23100002 C .087 .356 .172 .398 .24000003 .398 C .28 .398 .314 .381 .34 .347 L .34 .134 Z "/>
</symbol>
<symbol id="font_0_1d">
<path d="M .084000017 .21300002 C .084000017 .321 .174 .379 .262 .38000003 L .262 .45400004 C .178 .453 .117000009 .41200004 .077 .35900004 L .077 .45100004 L 0 .45100004 L 0 0 L .084000017 0 L .084000017 .21300002 Z "/>
</symbol>
<symbol id="font_0_15">
<path d="M .395 .119 C .33900003 .079 .27600003 .066 .23300001 .066 C .14600002 .066 .08 .13700001 .07700001 .22900002 L .40500004 .22900002 C .40500004 .275 .40000005 .342 .36100004 .39900003 C .32500003 .45000003 .26500003 .469 .21600002 .469 C .09400001 .469 0 .36200003 0 .23500002 C 0 .107 .10000001 0 .23200003 0 C .29000003 0 .35000003 .017 .40100003 .048000006 L .395 .119 M .08400001 .289 C .10700001 .36900003 .16600001 .403 .21600002 .403 C .26000003 .403 .32500003 .382 .344 .289 L .08400001 .289 Z "/>
</symbol>
<symbol id="font_0_11">
<path d="M .38100005 .298 C .38100005 .4 .30300004 .469 .20400001 .469 C .141 .469 .09300001 .456 .037 .426 L .043000007 .35300002 C .076000008 .375 .125 .405 .20400001 .405 C .24800001 .405 .29400004 .372 .29400004 .297 L .29400004 .257 C .14600002 .252 0 .22100002 0 .128 C 0 .078 .034 0 .12200001 0 C .165 0 .244 .009000001 .297 .048000006 L .297 .010000001 L .38100005 .010000001 L .38100005 .298 M .29400004 .15200001 C .29400004 .13200002 .29400004 .106 .259 .085 C .22700002 .067 .18800001 .066 .17700002 .066 C .12200001 .066 .08 .091 .08 .12900001 C .08 .19300002 .249 .19900002 .29400004 .20100002 L .29400004 .15200001 Z "/>
</symbol>
<symbol id="font_0_e">
<path d="M 0 .694 L 0 0 L .28500004 0 C .43300007 0 .548 .08800001 .548 .18800001 C .548 .27600003 .455 .347 .34400005 .363 C .44800005 .388 .518 .448 .518 .52000007 C .518 .61200007 .40300004 .694 .256 .694 L 0 .694 M .094000007 .39400003 L .094000007 .63500007 L .22600001 .63500007 C .33800004 .63500007 .43100003 .583 .43100003 .51900008 C .43100003 .45200003 .34000004 .39400003 .22700003 .39400003 L .094000007 .39400003 M .094000007 .059000005 L .094000007 .328 L .23700002 .328 C .36300005 .328 .45700006 .264 .45700006 .18900001 C .45700006 .115 .36400003 .059000005 .254 .059000005 L .094000007 .059000005 Z "/>
</symbol>
<symbol id="font_0_1">
<path d="M .45200003 .63900008 L .39500005 .67300006 L .32400004 .55300006 C .30200003 .564 .26800005 .573 .23200003 .573 C .10400001 .573 0 .46500004 0 .333 C 0 .26700003 .029000003 .201 .08500001 .15600002 L .012000002 .034 L .069000009 0 L .14200002 .12200001 C .169 .11000001 .201 .10400001 .23200003 .10400001 C .36 .10400001 .46400003 .20600002 .46400003 .333 C .46400003 .40400005 .43200005 .47000004 .38000003 .518 L .45200003 .63900008 M .121000017 .21600002 C .08400001 .25800003 .08100001 .31 .08100001 .33400003 C .08100001 .444 .15 .507 .23200003 .507 C .26400004 .507 .28800003 .49700005 .28900004 .49600006 L .121000017 .21600002 M .34300003 .45700003 C .37300004 .42000003 .38300003 .37600006 .38300003 .33400003 C .38300003 .222 .31000004 .17000002 .23200003 .17000002 C .22500003 .17000002 .20300001 .17000002 .17700002 .18 L .34300003 .45700003 Z "/>
</symbol>
<symbol id="font_0_17">
<path d="M .47300003 .65900006 C .45100004 .65900006 .38400004 .658 .30800004 .62900009 L .30600003 .628 C .27 .65200009 .23500002 .65900006 .20600002 .65900006 C .10800001 .65900006 .035000005 .582 .035000005 .49600003 C .035000005 .46100004 .047000007 .425 .07 .397 C .056 .38000003 .041 .352 .041 .314 C .041 .275 .057000005 .25 .066 .238 C .011 .20600002 0 .16000001 0 .136 C 0 .060000004 .105000007 0 .23500002 0 C .36600004 0 .47 .060000004 .47 .136 C .47 .277 .29500003 .277 .252 .277 L .15900001 .277 C .143 .277 .10000001 .277 .10000001 .32900004 C .10000001 .34900005 .10700001 .35900004 .10800001 .361 C .143 .33900003 .178 .33200003 .20500002 .33200003 C .303 .33200003 .37600003 .40900005 .37600003 .49500004 C .37600003 .52700009 .367 .556 .349 .58300009 C .34500004 .589 .34500004 .59000006 .34500004 .591 C .34500004 .595 .40500004 .595 .41000004 .595 C .411 .595 .44900004 .595 .48500005 .591 L .47300003 .65900006 M .20600002 .39400003 C .15200001 .39400003 .112 .42800004 .112 .49500004 C .112 .5730001 .162 .597 .20500002 .597 C .259 .597 .29900003 .563 .29900003 .49600003 C .29900003 .41800005 .24900002 .39400003 .20600002 .39400003 M .25300003 .19900002 C .27600003 .19900002 .39400003 .19900002 .39400003 .13500002 C .39400003 .09200001 .319 .062000008 .23500002 .062000008 C .15100001 .062000008 .076000008 .09200001 .076000008 .13500002 C .076000008 .14000002 .076000008 .19900002 .157 .19900002 L .25300003 .19900002 Z "/>
</symbol>
<use xlink:href="#font_0_f" transform="matrix(7.9701,0,0,-7.9701,172.85108,134.84499)"/>
<use xlink:href="#font_0_18" transform="matrix(7.9701,0,0,-7.9701,178.78084,134.84499)"/>
<use xlink:href="#font_0_1e" transform="matrix(7.9701,0,0,-7.9701,180.44658,134.92469)"/>
<use xlink:href="#font_0_13" transform="matrix(7.9701,0,0,-7.9701,183.73824,134.92469)"/>
<use xlink:href="#font_0_20" transform="matrix(7.9701,0,0,-7.9701,187.87471,134.92469)"/>
<use xlink:href="#font_0_1e" transform="matrix(7.9701,0,0,-7.9701,191.82788,134.92469)"/>
<use xlink:href="#font_0_1e" transform="matrix(7.9701,0,0,-7.9701,195.07172,134.92469)"/>
<use xlink:href="#font_0_18" transform="matrix(7.9701,0,0,-7.9701,198.67421,134.84499)"/>
<use xlink:href="#font_0_1c" transform="matrix(7.9701,0,0,-7.9701,200.33995,134.92469)"/>
<use xlink:href="#font_0_1b" transform="matrix(7.9701,0,0,-7.9701,204.99448,134.84499)"/>
<use xlink:href="#font_0_12" transform="matrix(7.9701,0,0,-7.9701,212.20742,134.92469)"/>
<use xlink:href="#font_0_21" transform="matrix(7.9701,0,0,-7.9701,215.79395,136.47089)"/>
<use xlink:href="#font_0_d" transform="matrix(7.9701,0,0,-7.9701,222.64026,134.84499)"/>
<use xlink:href="#font_0_1b" transform="matrix(7.9701,0,0,-7.9701,228.7055,134.84499)"/>
<use xlink:href="#font_0_14" transform="matrix(7.9701,0,0,-7.9701,232.7065,134.92469)"/>
<use xlink:href="#font_0_1d" transform="matrix(7.9701,0,0,-7.9701,237.47261,134.84499)"/>
<use xlink:href="#font_0_15" transform="matrix(7.9701,0,0,-7.9701,239.96724,134.92469)"/>
<use xlink:href="#font_0_11" transform="matrix(7.9701,0,0,-7.9701,243.80884,134.92469)"/>
<use xlink:href="#font_0_1e" transform="matrix(7.9701,0,0,-7.9701,247.75405,134.92469)"/>
<use xlink:href="#font_0_e" transform="matrix(7.9701,0,0,-7.9701,254.3772,134.84499)"/>
<use xlink:href="#font_0_1d" transform="matrix(7.9701,0,0,-7.9701,259.90049,134.84499)"/>
<use xlink:href="#font_0_1" transform="matrix(7.9701,0,0,-7.9701,262.37919,135.75357)"/>
<use xlink:href="#font_0_17" transform="matrix(7.9701,0,0,-7.9701,266.5874,136.47885)"/>
<use xlink:href="#font_0_17" transform="matrix(7.9701,0,0,-7.9701,270.81953,136.47885)"/>
<use xlink:href="#font_0_15" transform="matrix(7.9701,0,0,-7.9701,275.0915,134.92469)"/>
<use xlink:href="#font_0_1d" transform="matrix(7.9701,0,0,-7.9701,279.2519,134.84499)"/>
<symbol id="font_2_2a">
<path d="M .49900005 .716 L .42100004 .716 L .42100004 .254 C .42100004 .122 .337 .056 .253 .056 C .171 .056 .08900001 .119 .08900001 .254 L .08900001 .716 L 0 .716 L 0 .25500003 C 0 .109000008 .117000009 0 .252 0 C .386 0 .49900005 .11000001 .49900005 .25500003 L .49900005 .716 Z "/>
</symbol>
<symbol id="font_2_44">
<path d="M .432 .44400005 L .35700003 .44400005 L .27800004 .23600002 C .25700004 .18100001 .22600001 .1 .21800001 .053000004 L .21700001 .053000004 C .21100001 .089 .18500002 .158 .17500001 .185 L .07800001 .44400005 L 0 .44400005 L .172 0 L .26000003 0 L .432 .44400005 Z "/>
</symbol>
<symbol id="font_2_42">
<path d="M .15600002 .397 L .29700003 .397 L .29700003 .45500005 L .15600002 .45500005 L .15600002 .582 L .087000008 .582 L .087000008 .45500005 L 0 .45500005 L 0 .397 L .08400001 .397 L .08400001 .13000001 C .08400001 .07000001 .098000008 0 .167 0 C .23700002 0 .28800003 .025000003 .31300003 .038000004 L .29700003 .097 C .27100004 .076000008 .23900002 .064 .20700002 .064 C .17000002 .064 .15600002 .094000007 .15600002 .14700002 L .15600002 .397 Z "/>
</symbol>
<symbol id="font_2_33">
<path d="M .398 .705 L .323 .705 L .323 .411 C .27 .45500005 .214 .46600003 .17700002 .46600003 C .07800001 .46600003 0 .36200003 0 .23300003 C 0 .102000009 .07700001 0 .172 0 C .20500002 0 .264 .009000001 .32 .063 L .32 .011000001 L .398 .011000001 L .398 .705 M .32 .15000002 C .32 .136 .319 .11800001 .287 .089 C .264 .069000009 .23900001 .061 .21300002 .061 C .15100001 .061 .07800001 .108 .07800001 .23200003 C .07800001 .36400003 .164 .40500004 .223 .40500004 C .268 .40500004 .298 .38200004 .32 .35000003 L .32 .15000002 Z "/>
</symbol>
<symbol id="font_2_36">
<path d="M .32400004 .59700009 C .34600003 .59700009 .374 .601 .39800004 .601 C .41600005 .601 .455 .59800007 .45700003 .59800007 L .44600005 .661 C .37600003 .661 .31800003 .642 .28800003 .629 C .26700003 .646 .23300001 .661 .19300002 .661 C .10700001 .661 .034 .58900007 .034 .49800004 C .034 .46100004 .047000003 .425 .067 .39900003 C .038 .35800005 .038 .319 .038 .314 C .038 .28800003 .047000003 .259 .06400001 .23800002 C .012000002 .20700002 0 .16100002 0 .13500002 C 0 .060000004 .09900001 0 .22100002 0 C .344 0 .44300003 .059000017 .44300003 .136 C .44300003 .27500005 .27600003 .27500005 .23700002 .27500005 L .149 .27500005 C .136 .27500005 .091000009 .27500005 .091000009 .328 C .091000009 .33900003 .095 .35500003 .10200001 .36400003 C .12300001 .34900005 .15600002 .33500005 .19300002 .33500005 C .28300003 .33500005 .35300002 .40900005 .35300002 .49800004 C .35300002 .546 .33100004 .583 .32000003 .59800007 L .32400004 .59700009 M .19300002 .39200003 C .15600002 .39200003 .104 .41500003 .104 .49800004 C .104 .58100005 .15600002 .60400006 .19300002 .60400006 C .236 .60400006 .28300003 .57600006 .28300003 .49800004 C .28300003 .42000003 .236 .39200003 .19300002 .39200003 M .238 .20300001 C .26000003 .20300001 .37300004 .20300001 .37300004 .134 C .37300004 .09000001 .30400003 .05700001 .222 .05700001 C .14100002 .05700001 .07000001 .08800001 .07000001 .13500002 C .07000001 .13800001 .07000001 .20300001 .14800002 .20300001 L .238 .20300001 Z "/>
</symbol>
<symbol id="font_2_a">
<path d="M .083000008 .126 L .083000008 .208 L 0 .208 L 0 .125 L .025000006 .125 L 0 0 L .04100001 0 L .083000008 .126 Z "/>
</symbol>
<symbol id="font_2_3">
<path d="M .075 .44400005 L 0 .44400005 L 0 0 L .075 0 L .075 .44400005 Z "/>
</symbol>
<symbol id="font_2_1b">
<path d="M .51600006 .12500002 C .45700003 .086 .42300005 .065000008 .324 .065000008 C .18 .065000008 .09 .21500002 .09 .35900004 C .09 .49500004 .17300001 .652 .32600004 .652 C .397 .652 .44200004 .635 .49700005 .6 L .51100006 .682 C .46800006 .703 .39100004 .716 .32700003 .716 C .142 .716 0 .56 0 .35000003 C 0 .19200002 .119 0 .32700003 0 C .41900004 0 .45700003 .016 .522 .056 L .51600006 .12500002 Z "/>
</symbol>
<symbol id="font_2_3e">
<path d="M .07800001 .24000001 C .10900001 .21100001 .15300001 .183 .21300002 .183 C .31 .183 .398 .28100003 .398 .417 C .398 .53700008 .33500005 .64900007 .23900001 .64900007 C .179 .64900007 .12100001 .628 .075 .589 L .075 .638 L 0 .638 L 0 0 L .07800001 0 L .07800001 .24000001 M .07800001 .527 C .10200001 .56200006 .141 .58500006 .184 .58500006 C .26 .58500006 .32 .50900009 .32 .417 C .32 .314 .24900003 .244 .17400001 .244 C .135 .244 .10800001 .264 .088 .291 C .07800001 .306 .07800001 .30800004 .07800001 .326 L .07800001 .527 Z "/>
</symbol>
<symbol id="font_2_43">
<path d="M .35400004 .45500005 L .27600003 .45500005 L .27600003 .16500002 C .27600003 .09 .22000003 .055000005 .15600002 .055000005 C .08500001 .055000005 .07800001 .081 .07800001 .124000009 L .07800001 .45500005 L 0 .45500005 L 0 .120000008 C 0 .048 .023000002 0 .106000009 0 C .15900001 0 .23000002 .016 .279 .059 L .279 .011000001 L .35400004 .011000001 L .35400004 .45500005 Z "/>
</symbol>
<symbol id="font_2_2d">
<path d="M .66 .694 L .572 .694 L .41700004 .46800003 C .41200004 .46100004 .40700004 .453 .40000005 .44200004 L .33900003 .347 C .32000003 .37800003 .32000003 .38000003 .30300004 .404 L .105000007 .694 L 0 .694 L .28700004 .27800004 L .28700004 0 L .37300004 0 L .37300004 .277 L .66 .694 Z "/>
</symbol>
<symbol id="font_2_28">
<path d="M .42100004 .688 C .36600004 .7210001 .31100003 .73800006 .238 .73800006 C .09900001 .73800006 .011999998 .64000007 .011999998 .54100009 C .011999998 .49800004 .025999997 .45600004 .066 .41400004 C .10800001 .36900003 .15200001 .35700003 .21100003 .34300003 C .296 .32200004 .30600003 .31900005 .33400003 .29400004 C .35400004 .27700005 .37600003 .24400002 .37600003 .201 C .37600003 .135 .321 .069000009 .23000002 .069000009 C .18900001 .069000009 .09900001 .079 .015000001 .15 L 0 .069000009 C .088 .014000001 .16800002 0 .231 0 C .363 0 .455 .101 .455 .21100001 C .455 .27600003 .42400003 .32400004 .402 .34800003 C .35500003 .39800004 .32200004 .40700004 .23000002 .43000005 C .172 .44400005 .156 .44800005 .126 .47400005 C .119 .48000006 .091000009 .509 .091000009 .55300006 C .091000009 .61200007 .14500001 .67200008 .23700002 .67200008 C .321 .67200008 .36900003 .63900008 .40600003 .60800006 L .42100004 .688 Z "/>
</symbol>
<symbol id="font_2_35">
<path d="M .14900002 .386 L .259 .386 L .259 .44400005 L .14600002 .44400005 L .14600002 .563 C .14600002 .637 .21300002 .64400008 .23900001 .64400008 C .259 .64400008 .286 .642 .32 .62700006 L .32 .694 C .308 .697 .277 .70500007 .24000003 .70500007 C .14600002 .70500007 .074 .634 .074 .53400006 L .074 .44400005 L 0 .44400005 L 0 .386 L .074 .386 L .074 0 L .14900002 0 L .14900002 .386 Z "/>
</symbol>
<symbol id="font_2_31">
<path d="M .075 .705 L 0 .705 L 0 .011000001 L .07800001 .011000001 L .07800001 .057000005 C .10200001 .035 .14500001 0 .212 0 C .31200005 0 .398 .1 .398 .23400001 C .398 .358 .33000005 .46600003 .23600002 .46600003 C .19700001 .46600003 .135 .45600004 .075 .40700004 L .075 .705 M .07800001 .34600003 C .09400001 .37000004 .13000001 .40500004 .18500002 .40500004 C .244 .40500004 .32 .36200003 .32 .23400001 C .32 .104 .23600002 .061 .175 .061 C .136 .061 .103 .079 .07800001 .12500002 L .07800001 .34600003 Z "/>
</symbol>
<symbol id="font_2_25">
<path d="M .623 .36700005 C .623 .577 .47800005 .73800006 .31200005 .73800006 C .14200002 .73800006 0 .57500007 0 .36700005 C 0 .155 .148 0 .31100003 0 C .47800005 0 .623 .157 .623 .36700005 M .31200005 .065000008 C .194 .065000008 .08900001 .19000001 .08900001 .38200004 C .08900001 .56500008 .19900003 .674 .31100003 .674 C .42700003 .674 .53400006 .56100007 .53400006 .38200004 C .53400006 .187 .42600004 .065000008 .31200005 .065000008 Z "/>
</symbol>
<symbol id="font_2_13">
<path d="M .37300004 .68000009 C .32200004 .70000007 .28100003 .70000007 .26700003 .70000007 C .12600002 .70000007 0 .559 0 .34400005 C 0 .061000006 .124000009 0 .20900002 0 C .26900003 0 .312 .023000002 .351 .068 C .39600004 .119 .41500003 .165 .41500003 .24400002 C .41500003 .37200005 .34900005 .48400004 .25300003 .48400004 C .22100002 .48400004 .14500001 .47600005 .084 .40100003 C .09700001 .56200006 .176 .642 .268 .642 C .30600003 .642 .33800004 .63500007 .37300004 .62100008 L .37300004 .68000009 M .085 .24100001 C .085 .25500003 .085 .25700004 .086 .26900003 C .086 .34300003 .13100001 .42300005 .21400002 .42300005 C .26200003 .42300005 .29000003 .39800004 .31000004 .36100004 C .33100004 .32400004 .33300004 .28900004 .33300004 .24400002 C .33300004 .21000001 .33300004 .164 .30900003 .123 C .29200004 .095000009 .26600004 .061000006 .20900002 .061000006 C .10300001 .061000006 .08800001 .208 .085 .24100001 Z "/>
</symbol>
<symbol id="font_2_f">
<path d="M .132 .18800001 L .007999998 .064 L .007999998 0 L .40700004 0 L .40700004 .071 L .22500003 .071 C .21300003 .071 .201 .07 .18900001 .07 L .080000009 .07 C .11200001 .098000008 .188 .17300001 .21900001 .202 C .238 .22000002 .28900004 .26200003 .30800004 .28 C .35300002 .32500003 .40700004 .37800003 .40700004 .46300004 C .40700004 .578 .32600004 .67800006 .194 .67800006 C .080000009 .67800006 .023999997 .6 0 .514 C .011999998 .497 .017 .49100004 .019000002 .48800005 C .020999998 .48600004 .031000004 .47300003 .041 .45900003 C .061000006 .536 .08900001 .614 .18 .614 C .27400003 .614 .32500003 .53900006 .32500003 .46100004 C .32500003 .37600003 .268 .319 .20900002 .259 L .132 .18800001 Z "/>
</symbol>
<symbol id="font_2_d">
<path d="M .41500003 .34800003 C .41500003 .42700006 .411 .52000007 .36900003 .6010001 C .328 .67600008 .25900004 .70000007 .208 .70000007 C .14900002 .70000007 .079 .67300006 .038000004 .58400008 C .004999999 .51100006 0 .42800004 0 .34800003 C 0 .26900003 .0040000008 .19600001 .034 .123 C .074 .027000003 .15 0 .20700002 0 C .28000004 0 .34300003 .041 .37500004 .11000001 C .40500004 .17500001 .41500003 .24100001 .41500003 .34800003 M .208 .061000006 C .15600002 .061000006 .115 .09900001 .095000009 .171 C .079 .22800002 .078 .28200004 .078 .36000005 C .078 .42300005 .078 .48300005 .095000009 .53800007 C .101 .55700007 .12600002 .63900008 .20700002 .63900008 C .28500004 .63900008 .31100003 .563 .31800003 .545 C .337 .48900003 .337 .42200003 .337 .36000005 C .337 .29400004 .337 .231 .31900005 .16800002 C .293 .07700001 .24000001 .061000006 .208 .061000006 Z "/>
</symbol>
<use xlink:href="#font_2_2a" transform="matrix(10.9091,0,0,-10.9091,145.50147,161.14699)"/>
<use xlink:href="#font_2_3c" transform="matrix(10.9091,0,0,-10.9091,152.86511,160.90699)"/>
<use xlink:href="#font_2_38" transform="matrix(10.9091,0,0,-10.9091,158.42874,160.90699)"/>
<use xlink:href="#font_2_44" transform="matrix(10.9091,0,0,-10.9091,160.38147,160.90699)"/>
<use xlink:href="#font_2_34" transform="matrix(10.9091,0,0,-10.9091,165.63967,161.02698)"/>
<use xlink:href="#font_2_40" transform="matrix(10.9091,0,0,-10.9091,170.99604,160.90699)"/>
<use xlink:href="#font_2_41" transform="matrix(10.9091,0,0,-10.9091,174.13785,161.02698)"/>
<use xlink:href="#font_2_38" transform="matrix(10.9091,0,0,-10.9091,178.81786,160.90699)"/>
<use xlink:href="#font_2_42" transform="matrix(10.9091,0,0,-10.9091,180.82514,161.02698)"/>
<use xlink:href="#font_2_4" transform="matrix(10.9091,0,0,-10.9091,185.35242,155.15789)"/>
<use xlink:href="#font_2_30" transform="matrix(10.9091,0,0,-10.9091,185.03604,161.02698)"/>
<use xlink:href="#font_2_33" transform="matrix(10.9091,0,0,-10.9091,193.8288,161.02698)"/>
<use xlink:href="#font_2_38" transform="matrix(10.9091,0,0,-10.9091,199.88333,160.90699)"/>
<use xlink:href="#font_2_1a" transform="matrix(10.9091,0,0,-10.9091,206.38516,160.90699)"/>
<use xlink:href="#font_2_3d" transform="matrix(10.9091,0,0,-10.9091,212.93062,161.02698)"/>
<use xlink:href="#font_2_3a" transform="matrix(10.9091,0,0,-10.9091,218.94153,160.90699)"/>
<use xlink:href="#font_2_3d" transform="matrix(10.9091,0,0,-10.9091,220.99243,161.02698)"/>
<use xlink:href="#font_2_36" transform="matrix(10.9091,0,0,-10.9091,226.42516,163.15425)"/>
<use xlink:href="#font_2_3c" transform="matrix(10.9091,0,0,-10.9091,232.45789,160.90699)"/>
<use xlink:href="#font_2_30" transform="matrix(10.9091,0,0,-10.9091,237.69425,161.02698)"/>
<use xlink:href="#font_2_a" transform="matrix(10.9091,0,0,-10.9091,243.5088,162.27062)"/>
<use xlink:href="#font_2_1e" transform="matrix(10.9091,0,0,-10.9091,250.15245,160.90699)"/>
<use xlink:href="#font_2_3d" transform="matrix(10.9091,0,0,-10.9091,255.3561,161.02698)"/>
<use xlink:href="#font_2_40" transform="matrix(10.9091,0,0,-10.9091,261.07246,160.90699)"/>
<use xlink:href="#font_2_3a" transform="matrix(10.9091,0,0,-10.9091,264.79249,160.90699)"/>
<use xlink:href="#font_2_4" transform="matrix(10.9091,0,0,-10.9091,266.0034,155.15789)"/>
<use xlink:href="#font_2_3" transform="matrix(10.9091,0,0,-10.9091,267.39976,160.90699)"/>
<use xlink:href="#font_2_1b" transform="matrix(10.9091,0,0,-10.9091,273.48704,161.02698)"/>
<use xlink:href="#font_2_30" transform="matrix(10.9091,0,0,-10.9091,280.21797,161.02698)"/>
<use xlink:href="#font_2_3b" transform="matrix(10.9091,0,0,-10.9091,285.86888,160.90699)"/>
<use xlink:href="#font_2_3e" transform="matrix(10.9091,0,0,-10.9091,294.5416,163.02335)"/>
<use xlink:href="#font_2_43" transform="matrix(10.9091,0,0,-10.9091,300.17073,161.02698)"/>
<use xlink:href="#font_2_41" transform="matrix(10.9091,0,0,-10.9091,305.23255,161.02698)"/>
<use xlink:href="#font_2_2d" transform="matrix(10.9091,0,0,-10.9091,131.78874,180.12598)"/>
<use xlink:href="#font_2_28" transform="matrix(10.9091,0,0,-10.9091,139.51238,180.36598)"/>
<use xlink:href="#font_2_1a" transform="matrix(10.9091,0,0,-10.9091,146.15602,180.12598)"/>
<use xlink:href="#font_2_1b" transform="matrix(10.9091,0,0,-10.9091,153.09421,180.24597)"/>
<use xlink:href="#font_2_1b" transform="matrix(10.9091,0,0,-10.9091,163.69786,180.24597)"/>
<use xlink:href="#font_2_3d" transform="matrix(10.9091,0,0,-10.9091,170.27605,180.24597)"/>
<use xlink:href="#font_2_3c" transform="matrix(10.9091,0,0,-10.9091,176.28696,180.12598)"/>
<use xlink:href="#font_2_35" transform="matrix(10.9091,0,0,-10.9091,181.33786,180.12598)"/>
<use xlink:href="#font_2_34" transform="matrix(10.9091,0,0,-10.9091,184.76332,180.24597)"/>
<use xlink:href="#font_2_40" transform="matrix(10.9091,0,0,-10.9091,190.11969,180.12598)"/>
<use xlink:href="#font_2_34" transform="matrix(10.9091,0,0,-10.9091,193.33788,180.24597)"/>
<use xlink:href="#font_2_3c" transform="matrix(10.9091,0,0,-10.9091,198.68334,180.12598)"/>
<use xlink:href="#font_2_32" transform="matrix(10.9091,0,0,-10.9091,203.83243,180.24597)"/>
<use xlink:href="#font_2_34" transform="matrix(10.9091,0,0,-10.9091,208.66516,180.24597)"/>
<use xlink:href="#font_2_3d" transform="matrix(10.9091,0,0,-10.9091,217.0979,180.24597)"/>
<use xlink:href="#font_2_3c" transform="matrix(10.9091,0,0,-10.9091,223.10881,180.12598)"/>
<use xlink:href="#font_2_28" transform="matrix(10.9091,0,0,-10.9091,231.9779,180.36598)"/>
<use xlink:href="#font_2_43" transform="matrix(10.9091,0,0,-10.9091,238.447,180.24597)"/>
<use xlink:href="#font_2_41" transform="matrix(10.9091,0,0,-10.9091,243.50882,180.24597)"/>
<use xlink:href="#font_2_42" transform="matrix(10.9091,0,0,-10.9091,247.58884,180.24597)"/>
<use xlink:href="#font_2_30" transform="matrix(10.9091,0,0,-10.9091,251.79975,180.24597)"/>
<use xlink:href="#font_2_38" transform="matrix(10.9091,0,0,-10.9091,257.3743,180.12598)"/>
<use xlink:href="#font_2_3c" transform="matrix(10.9091,0,0,-10.9091,260.05793,180.12598)"/>
<use xlink:href="#font_2_30" transform="matrix(10.9091,0,0,-10.9091,265.2943,180.24597)"/>
<use xlink:href="#font_2_31" transform="matrix(10.9091,0,0,-10.9091,270.95613,180.24597)"/>
<use xlink:href="#font_2_3a" transform="matrix(10.9091,0,0,-10.9091,276.58525,180.12598)"/>
<use xlink:href="#font_2_34" transform="matrix(10.9091,0,0,-10.9091,278.69068,180.24597)"/>
<use xlink:href="#font_2_1e" transform="matrix(10.9091,0,0,-10.9091,287.81068,180.12598)"/>
<use xlink:href="#font_2_38" transform="matrix(10.9091,0,0,-10.9091,293.79978,180.12598)"/>
<use xlink:href="#font_2_3c" transform="matrix(10.9091,0,0,-10.9091,296.4834,180.12598)"/>
<use xlink:href="#font_2_30" transform="matrix(10.9091,0,0,-10.9091,301.7198,180.24597)"/>
<use xlink:href="#font_2_3c" transform="matrix(10.9091,0,0,-10.9091,307.3707,180.12598)"/>
<use xlink:href="#font_2_32" transform="matrix(10.9091,0,0,-10.9091,312.5198,180.24597)"/>
<use xlink:href="#font_2_34" transform="matrix(10.9091,0,0,-10.9091,317.3525,180.24597)"/>
<use xlink:href="#font_2_25" transform="matrix(10.9091,0,0,-10.9091,190.20093,199.584)"/>
<use xlink:href="#font_2_32" transform="matrix(10.9091,0,0,-10.9091,198.01184,199.46399)"/>
<use xlink:href="#font_2_42" transform="matrix(10.9091,0,0,-10.9091,202.67003,199.46399)"/>
<use xlink:href="#font_2_3d" transform="matrix(10.9091,0,0,-10.9091,206.72821,199.46399)"/>
<use xlink:href="#font_2_31" transform="matrix(10.9091,0,0,-10.9091,212.75003,199.46399)"/>
<use xlink:href="#font_2_34" transform="matrix(10.9091,0,0,-10.9091,218.18276,199.46399)"/>
<use xlink:href="#font_2_40" transform="matrix(10.9091,0,0,-10.9091,223.53913,199.344)"/>
<use xlink:href="#font_2_13" transform="matrix(10.9091,0,0,-10.9091,230.4664,199.584)"/>
<use xlink:href="#font_2_a" transform="matrix(10.9091,0,0,-10.9091,236.52095,200.70763)"/>
<use xlink:href="#font_2_f" transform="matrix(10.9091,0,0,-10.9091,242.58641,199.344)"/>
<use xlink:href="#font_2_d" transform="matrix(10.9091,0,0,-10.9091,248.04096,199.584)"/>
<use xlink:href="#font_2_f" transform="matrix(10.9091,0,0,-10.9091,253.4955,199.344)"/>
<use xlink:href="#font_2_f" transform="matrix(10.9091,0,0,-10.9091,258.95008,199.344)"/>
<path transform="matrix(1,0,0,-1,0,255.118)" d="M 0 0 L 226.772 0 L 226.772 9.631 L 0 9.631 Z "/>
<use xlink:href="#font_0_d" transform="matrix(5.9776,0,0,-5.9776,174.13732,252.129)" fill="#ffffff"/>
<use xlink:href="#font_0_1b" transform="matrix(5.9776,0,0,-5.9776,178.68628,252.129)" fill="#ffffff"/>
<use xlink:href="#font_0_14" transform="matrix(5.9776,0,0,-5.9776,181.68704,252.18877)" fill="#ffffff"/>
<use xlink:href="#font_0_1d" transform="matrix(5.9776,0,0,-5.9776,185.26166,252.129)" fill="#ffffff"/>
<use xlink:href="#font_0_15" transform="matrix(5.9776,0,0,-5.9776,187.13265,252.18877)" fill="#ffffff"/>
<use xlink:href="#font_0_11" transform="matrix(5.9776,0,0,-5.9776,190.01386,252.18877)" fill="#ffffff"/>
<use xlink:href="#font_0_1e" transform="matrix(5.9776,0,0,-5.9776,192.97275,252.18877)" fill="#ffffff"/>
<use xlink:href="#font_0_e" transform="matrix(5.9776,0,0,-5.9776,197.94014,252.129)" fill="#ffffff"/>
<use xlink:href="#font_0_1d" transform="matrix(5.9776,0,0,-5.9776,202.08263,252.129)" fill="#ffffff"/>
<use xlink:href="#font_0_1" transform="matrix(5.9776,0,0,-5.9776,203.94167,252.81044)" fill="#ffffff"/>
<use xlink:href="#font_0_17" transform="matrix(5.9776,0,0,-5.9776,207.09783,253.3544)" fill="#ffffff"/>
<use xlink:href="#font_0_17" transform="matrix(5.9776,0,0,-5.9776,210.27193,253.3544)" fill="#ffffff"/>
<use xlink:href="#font_0_15" transform="matrix(5.9776,0,0,-5.9776,213.47592,252.18877)" fill="#ffffff"/>
<use xlink:href="#font_0_1d" transform="matrix(5.9776,0,0,-5.9776,216.59624,252.129)" fill="#ffffff"/>
<path transform="matrix(1,0,0,-1,226.772,255.118)" d="M 0 0 L 226.772 0 L 226.772 9.631 L 0 9.631 Z " fill="#3333b3"/>
<symbol id="font_0_16">
<path d="M .16100002 .381 L .275 .381 L .275 .44400005 L .158 .44400005 L .158 .559 C .158 .628 .221 .638 .254 .638 C .275 .638 .30200003 .63500007 .33900003 .62100008 L .33900003 .694 C .313 .70000007 .282 .70400008 .255 .70400008 C .15200001 .70400008 .07700001 .63000008 .07700001 .531 L .07700001 .44400005 L 0 .44400005 L 0 .381 L .07700001 .381 L .07700001 0 L .16100002 0 L .16100002 .381 Z "/>
</symbol>
<symbol id="font_0_19">
<path d="M .08400001 .694 L 0 .694 L 0 0 L .08400001 0 L .08400001 .694 Z "/>
</symbol>
<symbol id="font_0_1f">
<path d="M .16800002 .391 L .316 .391 L .316 .45400004 L .16800002 .45400004 L .16800002 .58100005 L .091000009 .58100005 L .091000009 .45400004 L 0 .45400004 L 0 .391 L .088 .391 L .088 .13800001 C .088 .071 .105 0 .17700002 0 C .24900003 0 .304 .023000002 .334 .037 L .317 .101 C .284 .077 .24900003 .069000009 .22100002 .069000009 C .17900002 .069000009 .16800002 .11 .16800002 .15600002 L .16800002 .391 Z "/>
</symbol>
<symbol id="font_0_1a">
<path d="M .67700007 .296 C .67700007 .374 .65400007 .45400004 .531 .45400004 C .44700004 .45400004 .395 .40500004 .37100003 .37300004 C .36100004 .4 .33600004 .45400004 .236 .45400004 C .17900002 .45400004 .12400001 .43100003 .08 .37800003 L .08 .45100004 L 0 .45100004 L 0 0 L .087 0 L .087 .24300002 C .087 .30900003 .11500001 .388 .192 .388 C .29500003 .388 .29500003 .31800003 .29500003 .289 L .29500003 0 L .38200004 0 L .38200004 .24300002 C .38200004 .30900003 .41000004 .388 .48700006 .388 C .59000006 .388 .59000006 .31800003 .59000006 .289 L .59000006 0 L .67700007 0 L .67700007 .296 Z "/>
</symbol>
<symbol id="font_0_10">
<path d="M .44700004 .68700006 C .38300003 .7200001 .32600004 .73600009 .25200004 .73600009 C .100999999 .73600009 .012000002 .63400009 .012000002 .53800007 C .012000002 .497 .025000003 .44900004 .074 .40300004 C .118 .36200003 .164 .35200004 .226 .337 C .31000004 .317 .33300004 .312 .36200003 .282 C .38100005 .263 .39700005 .23500002 .39700005 .201 C .39700005 .13900002 .34100003 .075 .244 .075 C .187 .075 .095 .09200001 .015999999 .15900001 L 0 .069000009 C .05 .040000004 .133 0 .24500002 0 C .38400004 0 .48300005 .10100001 .48300005 .213 C .48300005 .294 .43600003 .34 .41600005 .361 C .37400005 .402 .32800005 .41300003 .25100003 .43100003 C .19000001 .44500003 .158 .453 .134 .476 C .12100001 .48900003 .098000008 .512 .098000008 .5500001 C .098000008 .60600009 .154 .66400006 .25100003 .66400006 C .32700003 .66400006 .38000003 .64000007 .43100003 .59700009 L .44700004 .68700006 Z "/>
</symbol>
<symbol id="font_0_2">
<path d="M .282 0 L .282 .06299999 L 0 .06299999 L 0 0 L .282 0 Z "/>
</symbol>
<symbol id="font_0_c">
<path d="M .21300002 .22600001 C .21300002 .342 .299 .41000004 .329 .43300004 C .365 .462 .38300003 .503 .38300003 .54800006 C .38300003 .62700006 .331 .70400008 .179 .70400008 C .118 .70400008 .059000005 .689 0 .652 L .024 .58400008 C .09500001 .638 .15900001 .638 .18100001 .638 C .22200002 .638 .296 .634 .296 .55 C .296 .508 .276 .49100004 .256 .47500003 C .187 .41900004 .141 .33 .141 .23 L .141 .18 L .21300002 .18 L .21300002 .22600001 M .13200002 0 L .22200002 0 L .22200002 .09 L .13200002 .09 L .13200002 0 Z "/>
</symbol>
<use xlink:href="#font_0_f" transform="matrix(5.9776,0,0,-5.9776,235.8618,252.129)" fill="#ffffff"/>
<use xlink:href="#font_0_18" transform="matrix(5.9776,0,0,-5.9776,240.30915,252.129)" fill="#ffffff"/>
<use xlink:href="#font_0_1e" transform="matrix(5.9776,0,0,-5.9776,241.55846,252.18877)" fill="#ffffff"/>
<use xlink:href="#font_0_13" transform="matrix(5.9776,0,0,-5.9776,244.0272,252.18877)" fill="#ffffff"/>
<use xlink:href="#font_0_20" transform="matrix(5.9776,0,0,-5.9776,247.12958,252.18877)" fill="#ffffff"/>
<use xlink:href="#font_0_1e" transform="matrix(5.9776,0,0,-5.9776,250.09447,252.18877)" fill="#ffffff"/>
<use xlink:href="#font_0_1e" transform="matrix(5.9776,0,0,-5.9776,252.52735,252.18877)" fill="#ffffff"/>
<use xlink:href="#font_0_18" transform="matrix(5.9776,0,0,-5.9776,255.22922,252.129)" fill="#ffffff"/>
<use xlink:href="#font_0_1c" transform="matrix(5.9776,0,0,-5.9776,256.47853,252.18877)" fill="#ffffff"/>
<use xlink:href="#font_0_1b" transform="matrix(5.9776,0,0,-5.9776,259.96946,252.129)" fill="#ffffff"/>
<use xlink:href="#font_0_1c" transform="matrix(5.9776,0,0,-5.9776,265.05039,252.18877)" fill="#ffffff"/>
<use xlink:href="#font_0_16" transform="matrix(5.9776,0,0,-5.9776,268.2185,252.129)" fill="#ffffff"/>
<use xlink:href="#font_0_d" transform="matrix(5.9776,0,0,-5.9776,272.28327,252.129)" fill="#ffffff"/>
<use xlink:href="#font_0_19" transform="matrix(5.9776,0,0,-5.9776,276.8382,252.129)" fill="#ffffff"/>
<use xlink:href="#font_0_1f" transform="matrix(5.9776,0,0,-5.9776,277.97395,252.18877)" fill="#ffffff"/>
<use xlink:href="#font_0_1d" transform="matrix(5.9776,0,0,-5.9776,280.6579,252.129)" fill="#ffffff"/>
<use xlink:href="#font_0_20" transform="matrix(5.9776,0,0,-5.9776,282.81584,252.18877)" fill="#ffffff"/>
<use xlink:href="#font_0_18" transform="matrix(5.9776,0,0,-5.9776,286.0497,252.129)" fill="#ffffff"/>
<use xlink:href="#font_0_1e" transform="matrix(5.9776,0,0,-5.9776,287.299,252.18877)" fill="#ffffff"/>
<use xlink:href="#font_0_1a" transform="matrix(5.9776,0,0,-5.9776,290.04875,252.129)" fill="#ffffff"/>
<use xlink:href="#font_0_1c" transform="matrix(5.9776,0,0,-5.9776,296.89308,252.18877)" fill="#ffffff"/>
<use xlink:href="#font_0_1d" transform="matrix(5.9776,0,0,-5.9776,300.2226,252.129)" fill="#ffffff"/>
<use xlink:href="#font_0_10" transform="matrix(5.9776,0,0,-5.9776,304.28138,252.25453)" fill="#ffffff"/>
<use xlink:href="#font_0_15" transform="matrix(5.9776,0,0,-5.9776,307.73646,252.18877)" fill="#ffffff"/>
<use xlink:href="#font_0_19" transform="matrix(5.9776,0,0,-5.9776,310.85078,252.129)" fill="#ffffff"/>
<use xlink:href="#font_0_16" transform="matrix(5.9776,0,0,-5.9776,312.0403,252.129)" fill="#ffffff"/>
<use xlink:href="#font_0_2" transform="matrix(5.9776,0,0,-5.9776,313.8814,250.98728)" fill="#ffffff"/>
<use xlink:href="#font_0_18" transform="matrix(5.9776,0,0,-5.9776,316.37409,252.129)" fill="#ffffff"/>
<use xlink:href="#font_0_1b" transform="matrix(5.9776,0,0,-5.9776,317.94023,252.129)" fill="#ffffff"/>
<use xlink:href="#font_0_1f" transform="matrix(5.9776,0,0,-5.9776,320.8453,252.18877)" fill="#ffffff"/>
<use xlink:href="#font_0_15" transform="matrix(5.9776,0,0,-5.9776,323.2304,252.18877)" fill="#ffffff"/>
<use xlink:href="#font_0_1d" transform="matrix(5.9776,0,0,-5.9776,326.3507,252.129)" fill="#ffffff"/>
<use xlink:href="#font_0_15" transform="matrix(5.9776,0,0,-5.9776,328.2217,252.18877)" fill="#ffffff"/>
<use xlink:href="#font_0_1e" transform="matrix(5.9776,0,0,-5.9776,331.01325,252.18877)" fill="#ffffff"/>
<use xlink:href="#font_0_1f" transform="matrix(5.9776,0,0,-5.9776,333.38636,252.18877)" fill="#ffffff"/>
<use xlink:href="#font_0_c" transform="matrix(5.9776,0,0,-5.9776,335.91493,252.129)" fill="#ffffff"/>
</g>
</svg>
